# xmcd
#
# Track frame offsets:
#	150
#	15328
#	26422
#	40477
#	53231
#	70482
#	87939
#	100271
#	118813
#	137164
#	159732
#	183592
#	211161
#	228435
#
# Disc length: 3240 seconds
#
# Revision: 0
# Processed by: cddbd v1.5.2PL0 Copyright (c) Steve Scherf et al.
# Submitted via: dBpowerAMP V4.0
#
DISCID=c00ca60e
DTITLE=Bob Meyer - Bob Meyer
DYEAR=1900
DGENRE=Blues
TTITLE0=Mary Lou
TTITLE1=Betty Ford Revisited
TTITLE2=Time to go
TTITLE3=Escondedo
TTITLE4=Pretty
TTITLE5=Find
TTITLE6=River Song
TTITLE7=The Race
TTITLE8=Long time
TTITLE9=Red White
TTITLE10=Shells from
TTITLE11=Slow Down
TTITLE12=AKQ
TTITLE13=We are all driftwood bears
EXTD=Bob Meyer
EXTT0=
EXTT1=
EXTT2=
EXTT3=
EXTT4=
EXTT5=
EXTT6=
EXTT7=
EXTT8=
EXTT9=
EXTT10=
EXTT11=
EXTT12=
EXTT13=
PLAYORDER=
